<?xml version="1.0" encoding="UTF-8"?>
<svg xmlns="http://www.w3.org/2000/svg" version="1.1" viewBox="0 0 1065.28 211.19">
  <!-- Generator: Adobe Illustrator 29.2.1, SVG Export Plug-In . SVG Version: 2.1.0 Build 116)  -->
  <defs>
    <style>
      .st0 {
        display: none;
      }
    </style>
  </defs>
  <g id="Lag_1" class="st0">
    <g>
      <path d="M245.05,134.9c0-8.92-2.09-16.73-6.22-23.22-4.3-6.64-10.49-11.84-17.76-14.94-7.59-3.38-16.85-5.1-27.52-5.1h-48.24v122.95h19.83v-36.43h28.41c10.68,0,19.94-1.75,27.53-5.19,7.25-3.13,13.42-8.32,17.75-14.93,4.13-6.43,6.23-14.22,6.23-23.14ZM225.22,134.9c0,8.14-2.7,14.51-8.03,18.92-5.4,4.47-13.53,6.74-24.16,6.74h-27.89v-51.32h27.89c10.63,0,18.76,2.27,24.16,6.74s8.03,10.67,8.03,18.92h0Z"/>
      <path d="M315.76,142.67c-2.79,3.89-5.99,7.48-9.53,10.7l-49.39,47.65v13.57h89.09v-17.6h-59.67l34.35-33.13h0c4.65-4.41,8.85-9.25,12.55-14.48,2.67-3.79,4.7-7.98,6.03-12.42,1.06-3.87,1.59-7.86,1.59-11.86.15-6.59-1.7-13.08-5.29-18.61-3.7-5.39-8.89-9.58-14.93-12.08-6.33-2.75-13.85-4.15-22.35-4.15-8.9-.09-17.74,1.54-26.02,4.82-7.45,2.88-14.01,7.68-19.02,13.9l-.78.99,13.65,11.84.86-1.02c3.47-4.17,7.89-7.43,12.9-9.51,5.36-2.12,11.09-3.16,16.86-3.08,8.01,0,14.15,1.69,18.24,5.03,4.07,3.32,6.04,7.76,6.04,13.59-.02,2.53-.38,5.04-1.07,7.47-.92,2.99-2.31,5.82-4.12,8.38Z"/>
      <path d="M375.91,198.14c5.89,5.74,12.88,10.22,20.55,13.18,8.24,3.16,17.01,4.73,25.83,4.65,9.02.09,17.98-1.57,26.37-4.91,7.86-3.17,14.88-8.11,20.51-14.44l.84-.95-13.05-12.65-.92.99c-4.17,4.58-9.29,8.19-15,10.59-5.68,2.3-11.76,3.46-17.89,3.42-6.27.06-12.49-1.08-18.33-3.35-5.44-2.11-10.4-5.29-14.6-9.34-4.13-4.05-7.4-8.9-9.58-14.25-2.31-5.71-3.48-11.81-3.42-17.97-.05-6.16,1.11-12.26,3.42-17.97,2.19-5.36,5.45-10.21,9.58-14.25h0c4.2-4.05,9.16-7.23,14.6-9.34,5.84-2.26,12.07-3.4,18.33-3.35,6.13-.04,12.21,1.13,17.89,3.42,5.69,2.38,10.81,5.93,15.02,10.44l.92.97,13.04-12.64-.84-.95c-5.62-6.32-12.65-11.24-20.52-14.36-16.74-6.37-35.23-6.43-52.02-.17-15.45,5.93-27.84,17.88-34.33,33.1-3.34,7.94-5.01,16.49-4.92,25.1-.09,8.61,1.58,17.16,4.92,25.1,3.19,7.47,7.81,14.24,13.61,19.93Z"/>
      <path d="M590.85,196.62l.84-.95-13.05-12.65-.92.99c-4.17,4.58-9.29,8.19-15,10.59-5.68,2.3-11.76,3.46-17.89,3.42-6.27.06-12.49-1.08-18.33-3.34-5.44-2.11-10.4-5.29-14.6-9.34-4.13-4.05-7.4-8.9-9.58-14.25-2.31-5.71-3.48-11.81-3.42-17.97-.05-6.16,1.11-12.26,3.42-17.97,2.19-5.36,5.45-10.21,9.58-14.25,4.2-4.05,9.16-7.23,14.6-9.34,5.84-2.26,12.07-3.4,18.33-3.34,6.13-.04,12.21,1.13,17.89,3.42,5.69,2.38,10.8,5.94,15.01,10.44l.92.97,13.04-12.64-.84-.95c-5.62-6.32-12.65-11.24-20.52-14.36-16.74-6.37-35.23-6.43-52.02-.18-15.45,5.94-27.84,17.88-34.33,33.11-3.34,7.94-5.01,16.49-4.92,25.1-.09,8.61,1.58,17.16,4.92,25.1,3.19,7.47,7.81,14.24,13.61,19.93,5.89,5.74,12.88,10.22,20.55,13.18,8.24,3.16,17.01,4.73,25.83,4.65,9.02.09,17.98-1.57,26.37-4.91,7.86-3.17,14.88-8.11,20.51-14.44Z"/>
      <path d="M103.67,249.42h0c-1.76-.74-3.65-1.09-5.55-1.04h-10.03v24.37h4.53v-7.03h5.5c1.9.05,3.8-.31,5.55-1.04,1.46-.62,2.7-1.67,3.57-2.99.86-1.39,1.3-3,1.25-4.63.04-1.63-.39-3.24-1.25-4.63-.87-1.33-2.11-2.37-3.57-2.99ZM103.93,257.04c.07,1.36-.48,2.68-1.51,3.57-1.31.94-2.9,1.39-4.51,1.27h-5.29v-9.68h5.29c1.6-.12,3.2.33,4.51,1.25,1.04.89,1.6,2.22,1.51,3.58Z"/>
      <path d="M134.15,251.59h0c-1.2-1.14-2.62-2.03-4.16-2.63-1.67-.64-3.45-.96-5.24-.94-1.79-.02-3.56.3-5.23.94-1.55.59-2.97,1.49-4.18,2.63-1.18,1.12-2.12,2.47-2.75,3.97-.66,1.58-.99,3.28-.97,5-.02,1.72.31,3.42.97,5,.63,1.5,1.57,2.85,2.75,3.97,1.21,1.14,2.63,2.03,4.18,2.62,1.68.64,3.46.96,5.26.94,1.78.02,3.55-.3,5.21-.94,1.54-.6,2.95-1.48,4.16-2.61,1.18-1.12,2.12-2.47,2.75-3.97.66-1.59.99-3.29.97-5.01.02-1.72-.31-3.42-.97-5-.63-1.5-1.57-2.85-2.75-3.97ZM132.67,263.99h0c-.42,1.02-1.03,1.94-1.79,2.72-.77.78-1.69,1.39-2.71,1.79-2.2.84-4.63.84-6.83,0-1.02-.4-1.94-1.01-2.71-1.79-.77-.78-1.38-1.71-1.79-2.73-.44-1.08-.66-2.24-.65-3.41-.02-1.17.2-2.34.65-3.43.42-1.02,1.03-1.94,1.81-2.71.77-.77,1.7-1.38,2.71-1.79,1.08-.43,2.24-.64,3.4-.63,1.17-.01,2.33.2,3.41.63,1.02.4,1.94,1.01,2.71,1.79.77.78,1.37,1.7,1.79,2.71.44,1.09.66,2.26.64,3.43.02,1.17-.2,2.34-.64,3.43Z"/>
      <polygon points="166.98 267.01 160.82 248.38 156.64 248.38 150.34 266.92 144.28 248.38 139.58 248.38 147.66 272.75 152.5 272.75 158.62 254.73 164.65 272.75 169.45 272.75 177.53 248.38 173.22 248.38 166.98 267.01"/>
      <polygon points="185.75 262.23 197.52 262.23 197.52 258.51 185.75 258.51 185.75 252.17 199.01 252.17 199.01 248.38 181.22 248.38 181.22 272.75 199.5 272.75 199.5 268.95 185.75 268.95 185.75 262.23"/>
      <path d="M220.13,264.62h0c1.46-.61,2.7-1.64,3.57-2.96.86-1.38,1.3-2.99,1.25-4.61.04-1.63-.39-3.24-1.25-4.63-.87-1.33-2.11-2.37-3.57-2.99-1.75-.74-3.65-1.09-5.55-1.04h-10.03v24.37h4.53v-7.1h5.5c.33,0,.63-.02.94-.04l4.98,7.14h4.87l-5.6-8c.12-.05.25-.08.36-.13ZM218.88,260.63c-1.3.95-2.9,1.41-4.51,1.29h-5.29v-9.71h5.29c1.6-.12,3.2.33,4.51,1.25,1.04.89,1.6,2.22,1.51,3.58.07,1.36-.49,2.68-1.51,3.58Z"/>
      <path d="M250.54,262.72c.94-.87,1.8-1.84,2.54-2.89.53-.75.93-1.58,1.18-2.45.21-.77.31-1.56.31-2.35.03-1.32-.34-2.62-1.06-3.73-.76-1.08-1.81-1.92-3.03-2.42-1.46-.6-3.03-.89-4.61-.85-1.86-.03-3.7.34-5.41,1.06-1.52.64-2.85,1.66-3.85,2.98l3.17,2.44c.66-.83,1.52-1.49,2.49-1.91,1.02-.43,2.11-.64,3.22-.63,1.2-.08,2.39.24,3.38.92.77.63,1.2,1.6,1.15,2.59,0,.48-.07.95-.19,1.41-.17.58-.43,1.13-.78,1.62-.53.73-1.14,1.41-1.81,2.02l-9.68,9.19v3.03h17.96v-3.83h-11.5l6.52-6.2Z"/>
      <path d="M274.75,254.4h0c.79-.77,1.72-1.38,2.75-1.78,1.12-.43,2.3-.64,3.5-.63,2.48-.04,4.86,1.01,6.51,2.86l2.93-2.75c-1.13-1.34-2.56-2.38-4.18-3.05-3.42-1.33-7.21-1.37-10.65-.1-1.54.59-2.95,1.48-4.14,2.61-1.18,1.12-2.12,2.48-2.75,3.99-.66,1.59-.99,3.29-.97,5.01-.02,1.72.31,3.42.97,5.01.63,1.5,1.56,2.86,2.73,3.99,1.19,1.14,2.6,2.03,4.14,2.61,1.65.63,3.4.94,5.17.92,1.88.03,3.76-.33,5.5-1.04,1.61-.67,3.04-1.71,4.18-3.03l-2.93-2.78c-.82.93-1.83,1.67-2.96,2.18-1.12.48-2.33.72-3.55.71-1.2.01-2.38-.2-3.5-.63-1.03-.4-1.96-1-2.75-1.78-.78-.77-1.4-1.7-1.81-2.72-.44-1.09-.66-2.27-.65-3.45-.01-1.18.21-2.35.65-3.45.41-1.02,1.03-1.94,1.81-2.72Z"/>
      <polygon points="299.32 248.38 294.79 248.38 294.79 272.75 312.06 272.75 312.06 268.92 299.32 268.92 299.32 248.38"/>
      <rect x="315.64" y="248.38" width="4.53" height="24.37"/>
      <polygon points="349.66 248.38 340.15 264.53 330.48 248.38 326.75 248.38 326.75 272.75 331.07 272.75 331.07 256.81 339.08 269.96 341.1 269.96 349.11 256.6 349.14 272.75 353.42 272.75 353.38 248.38 349.66 248.38"/>
      <path d="M367.52,248.38l-10.97,24.37h4.66l2.41-5.64h12.19l2.42,5.64h4.74l-11-24.37h-4.46ZM365.15,263.56l4.56-10.67,4.58,10.67h-9.14Z"/>
      <polygon points="381.72 252.21 389.8 252.21 389.8 272.75 394.33 272.75 394.33 252.21 402.41 252.21 402.41 248.38 381.72 248.38 381.72 252.21"/>
      <polygon points="410.34 262.23 422.11 262.23 422.11 258.51 410.34 258.51 410.34 252.17 423.61 252.17 423.61 248.38 405.82 248.38 405.82 272.75 424.09 272.75 424.09 268.95 410.34 268.95 410.34 262.23"/>
      <path d="M444.02,254.4h0c.79-.78,1.72-1.38,2.75-1.78,1.12-.43,2.3-.64,3.5-.63,2.48-.04,4.86,1.01,6.51,2.86l2.92-2.75c-1.13-1.34-2.56-2.38-4.18-3.05-3.42-1.33-7.21-1.37-10.65-.1-1.54.59-2.95,1.48-4.14,2.61-1.18,1.12-2.12,2.48-2.75,3.99-.66,1.59-.99,3.29-.98,5.01-.02,1.72.31,3.42.98,5.01.63,1.5,1.56,2.86,2.73,3.99,1.19,1.14,2.6,2.03,4.14,2.61,1.65.63,3.4.94,5.17.92,1.88.03,3.76-.33,5.5-1.04,1.61-.67,3.04-1.71,4.18-3.03l-2.92-2.78c-.82.93-1.83,1.67-2.96,2.18-1.12.48-2.33.72-3.55.71-1.2.02-2.38-.2-3.5-.63-2.08-.8-3.73-2.43-4.56-4.49-.44-1.09-.66-2.27-.64-3.45-.01-1.18.2-2.35.64-3.45.41-1.02,1.03-1.94,1.81-2.72Z"/>
      <polygon points="481.19 258.44 468.59 258.44 468.59 248.38 464.06 248.38 464.06 272.75 468.59 272.75 468.59 262.3 481.19 262.3 481.19 272.75 485.71 272.75 485.71 248.38 481.19 248.38 481.19 258.44"/>
      <path d="M499.78,248.38l-10.97,24.37h4.66l2.41-5.64h12.19l2.42,5.64h4.73l-11-24.37h-4.46ZM497.41,263.56l4.56-10.67,4.58,10.67h-9.14Z"/>
      <polygon points="535.5 264.88 522.06 248.38 518.34 248.38 518.34 272.75 522.83 272.75 522.83 256.25 536.27 272.75 539.99 272.75 539.99 248.38 535.5 248.38 535.5 264.88"/>
      <path d="M551.82,254.4h0c.81-.78,1.77-1.38,2.82-1.77,1.13-.43,2.34-.64,3.55-.63,2.53-.05,4.97.96,6.72,2.78l2.85-2.78c-1.15-1.3-2.58-2.32-4.2-2.96-1.78-.7-3.68-1.04-5.59-1.01-1.79-.02-3.58.29-5.26.92-1.56.59-2.98,1.47-4.2,2.61-1.19,1.12-2.14,2.48-2.77,3.99-.66,1.59-.99,3.29-.97,5.01-.02,1.72.31,3.42.97,5.01.63,1.51,1.57,2.86,2.75,3.99,1.2,1.14,2.62,2.02,4.16,2.61,1.67.63,3.45.94,5.24.92,1.73,0,3.45-.27,5.1-.78,1.61-.49,3.12-1.27,4.44-2.32v-9.71h-4.28v7.57c-.48.28-.99.52-1.52.7-1.13.38-2.31.58-3.5.58-1.21.02-2.42-.2-3.55-.63-2.1-.81-3.77-2.44-4.61-4.53-.44-1.08-.66-2.24-.64-3.41-.01-1.18.2-2.35.64-3.45.41-1.02,1.04-1.95,1.83-2.72Z"/>
      <polygon points="577.94 268.95 577.94 262.23 589.71 262.23 589.71 258.51 577.94 258.51 577.94 252.17 591.21 252.17 591.21 248.38 573.42 248.38 573.42 272.75 591.7 272.75 591.7 268.95 577.94 268.95"/>
    </g>
  </g>
  <g id="Lag_2">
    <g>
      <path d="M284.09,159.33c-8.2,0-16.03-1.18-23.48-3.52-7.45-2.35-13.42-5.37-17.92-9.08l6.75-15.15c4.2,3.3,9.4,6.05,15.6,8.25,6.2,2.2,12.55,3.3,19.05,3.3,5.5,0,9.95-.6,13.35-1.8,3.4-1.2,5.9-2.82,7.5-4.88,1.6-2.05,2.4-4.37,2.4-6.98,0-3.2-1.15-5.77-3.45-7.73-2.3-1.95-5.28-3.5-8.92-4.65-3.65-1.15-7.7-2.2-12.15-3.15-4.45-.95-8.9-2.12-13.35-3.52-4.45-1.4-8.53-3.17-12.23-5.33-3.7-2.15-6.67-5.02-8.92-8.62-2.25-3.6-3.38-8.2-3.38-13.8s1.52-10.92,4.57-15.68c3.05-4.75,7.7-8.55,13.95-11.4,6.25-2.85,14.17-4.27,23.77-4.27,6.3,0,12.55.8,18.75,2.4,6.2,1.6,11.6,3.9,16.2,6.9l-6.15,15.15c-4.7-2.8-9.55-4.88-14.55-6.23-5-1.35-9.8-2.02-14.4-2.02-5.3,0-9.65.65-13.05,1.95-3.4,1.3-5.88,3.03-7.43,5.18-1.55,2.15-2.32,4.53-2.32,7.12,0,3.2,1.12,5.77,3.38,7.72,2.25,1.95,5.2,3.48,8.85,4.58,3.65,1.1,7.72,2.15,12.22,3.15,4.5,1,8.95,2.18,13.35,3.52,4.4,1.35,8.45,3.1,12.15,5.25,3.7,2.15,6.68,5,8.93,8.55,2.25,3.55,3.38,8.08,3.38,13.57s-1.53,10.78-4.58,15.53c-3.05,4.75-7.73,8.55-14.03,11.4s-14.25,4.27-23.85,4.27Z"/>
      <path d="M394.49,159.33c-8.1,0-15.55-1.33-22.35-3.98-6.8-2.65-12.73-6.42-17.77-11.32-5.05-4.9-8.98-10.6-11.78-17.1-2.8-6.5-4.2-13.7-4.2-21.6s1.4-15.1,4.2-21.6c2.8-6.5,6.75-12.2,11.85-17.1,5.1-4.9,11.05-8.67,17.85-11.32,6.8-2.65,14.25-3.98,22.35-3.98,8.6,0,16.45,1.48,23.55,4.42,7.1,2.95,13.1,7.33,18,13.12l-12.6,11.85c-3.9-4.1-8.2-7.17-12.9-9.23-4.7-2.05-9.75-3.07-15.15-3.07s-10.53.9-15.08,2.7c-4.55,1.8-8.5,4.35-11.85,7.65-3.35,3.3-5.98,7.2-7.88,11.7-1.9,4.5-2.85,9.45-2.85,14.85s.95,10.35,2.85,14.85c1.9,4.5,4.52,8.4,7.88,11.7,3.35,3.3,7.3,5.85,11.85,7.65,4.55,1.8,9.57,2.7,15.08,2.7s10.45-1.02,15.15-3.07c4.7-2.05,9-5.18,12.9-9.38l12.6,11.85c-4.9,5.8-10.9,10.2-18,13.2-7.1,3-15,4.5-23.7,4.5Z"/>
      <path d="M440.09,157.83l47.25-105h19.2l47.4,105h-20.55l-40.5-94.65h7.8l-40.65,94.65h-19.95ZM461.84,133.53l5.4-15.3h56.55l5.25,15.3h-67.2Z"/>
      <path d="M567.29,157.83V52.83h16.05l65.85,81h-7.95V52.83h19.2v105h-16.05l-65.7-81h7.95v81h-19.35Z"/>
      <path d="M737.84,159.33c-8.2,0-15.73-1.33-22.58-3.98-6.85-2.65-12.83-6.42-17.92-11.32-5.1-4.9-9.05-10.6-11.85-17.1-2.8-6.5-4.2-13.7-4.2-21.6s1.4-15.1,4.2-21.6c2.8-6.5,6.77-12.2,11.92-17.1,5.15-4.9,11.15-8.67,18-11.32,6.85-2.65,14.48-3.98,22.88-3.98s16.77,1.45,23.93,4.35c7.15,2.9,13.17,7.15,18.07,12.75l-12.3,12c-4.1-4.1-8.53-7.12-13.27-9.08-4.75-1.95-9.98-2.92-15.68-2.92s-10.72.9-15.38,2.7c-4.65,1.8-8.68,4.35-12.07,7.65-3.4,3.3-6.05,7.2-7.95,11.7-1.9,4.5-2.85,9.45-2.85,14.85s.95,10.23,2.85,14.77c1.9,4.55,4.55,8.48,7.95,11.77,3.4,3.3,7.4,5.85,12,7.65,4.6,1.8,9.7,2.7,15.3,2.7,5.2,0,10.22-.82,15.08-2.48,4.85-1.65,9.47-4.42,13.88-8.32l10.95,14.55c-5.4,4.4-11.7,7.73-18.9,9.98s-14.55,3.38-22.05,3.38ZM760.49,143.43v-39.15h18.3v41.7l-18.3-2.55Z"/>
      <path d="M804.58,157.83V52.83h43.2c9.3,0,17.27,1.48,23.92,4.42,6.65,2.95,11.78,7.23,15.38,12.83,3.6,5.6,5.4,12.3,5.4,20.1s-1.8,14.3-5.4,19.8c-3.6,5.5-8.73,9.75-15.38,12.75-6.65,3-14.62,4.5-23.92,4.5h-32.25l8.55-8.7v39.3h-19.5ZM824.08,120.63l-8.55-9.45h31.35c8.6,0,15.07-1.85,19.42-5.55,4.35-3.7,6.52-8.85,6.52-15.45s-2.17-11.72-6.52-15.38c-4.35-3.65-10.83-5.48-19.42-5.48h-31.35l8.55-9.6v60.9ZM873.28,157.83l-26.55-38.1h20.85l26.7,38.1h-21Z"/>
      <path d="M914.23,157.83V52.83h19.5v105h-19.5Z"/>
      <path d="M962.08,157.83V52.83h46.05c11.2,0,21.12,2.17,29.77,6.52,8.65,4.35,15.38,10.48,20.17,18.38,4.8,7.9,7.2,17.1,7.2,27.6s-2.4,19.7-7.2,27.6c-4.8,7.9-11.53,14.02-20.17,18.38-8.65,4.35-18.58,6.52-29.77,6.52h-46.05ZM981.58,141.33h25.35c7.9,0,14.72-1.5,20.47-4.5,5.75-3,10.25-7.2,13.5-12.6,3.25-5.4,4.88-11.7,4.88-18.9s-1.63-13.75-4.88-19.05c-3.25-5.3-7.75-9.45-13.5-12.45-5.75-3-12.58-4.5-20.47-4.5h-25.35v72Z"/>
    </g>
    <path d="M159.98,145.51c-.13-.11-.27-.21-.41-.31l14.91-39.45c5.71.82,11-3.14,11.81-8.85.75-5.22-2.52-10.18-7.61-11.56h0l1.07-36.73c5.63-1.25,9.19-6.83,7.94-12.46s-6.83-9.19-12.46-7.94c-2.54.56-4.77,2.05-6.27,4.17L103.14,10.11C102.96,4.35,98.14-.18,92.38,0c-5.53.18-9.97,4.64-10.1,10.18l-63.21,22.34c-3.25-4.76-9.75-5.99-14.52-2.73-4.76,3.25-5.99,9.75-2.73,14.52,1.38,2.02,3.42,3.49,5.77,4.16l1.96,37.16c-5.42,1.98-8.2,7.98-6.22,13.39,1.53,4.18,5.54,6.93,9.99,6.85.13,0,.26-.02.39-.03l19.74,40c-4.36,3.77-4.84,10.36-1.07,14.72,3.36,3.88,9.04,4.75,13.4,2.04l36.98,34.9c-1.8,5.48,1.2,11.39,6.68,13.18,5.48,1.8,11.39-1.2,13.18-6.68.64-1.95.69-4.05.14-6.03l44.33-36.01c4.54,3.56,11.1,2.76,14.65-1.78,3.56-4.54,2.76-11.1-1.78-14.65ZM102.01,15.19l65.11,22.05c-.61,5.06,2.55,9.82,7.46,11.21h0l-1.08,36.82c-1.21.29-2.37.8-3.4,1.5L101.08,16.67c.35-.46.66-.96.93-1.48ZM98.78,18.94l68.97,70.04c-1.48,1.88-2.27,4.22-2.22,6.62,0,.17.02.34.04.51l-44.99,12.74c-1.64-3.93-5.49-6.47-9.75-6.43h0l-14.56-82.16c.9-.32,1.75-.77,2.53-1.32ZM92.89,20.88c.06,0,.12,0,.18-.01l14.55,82.08c-.89.3-1.73.72-2.5,1.24h0s-27.5-29.87-27.5-29.87c3.55-4.53,2.76-11.09-1.78-14.64-.3-.24-.62-.46-.95-.66l15.69-38.36c.76.16,1.54.24,2.32.23ZM23.3,92.97l37.28-19.47c3.08,4.86,9.52,6.3,14.38,3.21.09-.06.19-.12.28-.18l27.49,29.85c-.73.93-1.29,1.97-1.67,3.08l-77.53-12.88c.15-1.21.07-2.43-.23-3.61ZM87.22,19.32c.1.06.21.12.31.19l-15.65,38.25c-5.57-1.41-11.23,1.97-12.64,7.55-.43,1.71-.42,3.51.03,5.21l-37.24,19.44c-.08-.12-.15-.24-.23-.36L87.22,19.32ZM12.79,48.6c4.81-1.11,8.19-5.43,8.11-10.36,0-.28-.03-.56-.06-.84l62.61-22.13c.36.7.8,1.35,1.3,1.95L19.61,87.22c-1.42-1.12-3.11-1.85-4.9-2.11l-1.92-36.51ZM38.09,143.51l-19.38-39.26c1.73-1.09,3.1-2.67,3.95-4.53l77.83,12.93c0,.13-.02.26-.01.38.02,1.29.29,2.57.78,3.76l-52.76,30.45c-2.46-3.14-6.5-4.59-10.4-3.74ZM92.53,190.25h0c-2.57.05-5.04,1.04-6.92,2.8l-36.22-34.19c1.53-2.68,1.78-5.9.7-8.78l52.84-30.5c1.18,1.4,2.71,2.47,4.44,3.1l-14.16,67.6c-.22-.01-.44-.03-.67-.02ZM143.95,157.84l-43.78,35.56c-1.07-1.1-2.37-1.94-3.8-2.48l14.17-67.63c.18,0,.37.02.55.02,2.22-.04,4.37-.78,6.13-2.13l27.79,26.54c-2.1,2.96-2.5,6.8-1.07,10.13ZM153.37,143.28c-2.2.04-4.34.77-6.1,2.11l-27.8-26.55c1.27-1.8,1.93-3.95,1.89-6.15,0-.23-.03-.46-.05-.69l44.94-12.72c.71,1.79,1.9,3.34,3.44,4.5l-14.96,39.58c-.45-.05-.91-.08-1.37-.08Z"/>
  </g>
</svg>